<svg xmlns="http://www.w3.org/2000/svg" viewBox="-479 -54.1 557.9 522.6" preserveAspectRatio="xMidYMid meet">
<g fill="none" stroke="#000" stroke-width="11" stroke-linecap="round">
<path d="M 0 0 L -38.9 -31.5"/>
<path d="M -38.9 -31.5 A 12 12 0 0 0 -49.1 -33.8"/>
<path d="M -49.1 -33.8 L -170.9 -5.7"/>
<path d="M -170.9 -5.7 A 12 12 0 0 0 -179.3 10.6"/>
<path d="M -179.3 10.6 L -160.2 56.8"/>
<path d="M -160.2 56.8 A 12 12 0 0 0 -140.2 60.3"/>
<path d="M -140.2 60.3 L -106.4 23.4"/>
<path d="M -106.4 23.4 A 12 12 0 0 1 -91.4 21.2"/>
<path d="M -91.4 21.2 L -48.6 47"/>
<path d="M -48.6 47 A 12 12 0 0 1 -46.3 65.8"/>
<path d="M -46.3 65.8 L -99.3 118.8"/>
<path d="M -99.3 118.8 A 12 12 0 0 0 -102.7 128.5"/>
<path d="M -102.7 128.5 L -89.7 252.8"/>
<path d="M -89.7 252.8 A 35 35 0 1 1 -159.1 251"/>
<path d="M -159.1 251 L -147.3 176.9"/>
<path d="M -147.3 176.9 A 12 12 0 0 0 -147.9 171"/>
<path d="M -147.9 171 L -182.1 77"/>
<path d="M -182.1 77 A 12 12 0 0 0 -188.8 70"/>
<path d="M -188.8 70 L -281.2 31.8"/>
<path d="M -365.7 -3.3 L -434.9 -31.9"/>
<path d="M -434.9 -31.9 A 12 12 0 0 0 -448 -12.4"/>
<path d="M -448 -12.4 L -377.3 58.3"/>
<path d="M -377.3 58.3 A 12 12 0 0 1 -378.1 76"/>
<path d="M -378.1 76 L -454.7 140.3"/>
<path d="M -454.7 140.3 A 12 12 0 0 0 -447.8 161.4"/>
<path d="M -447.8 161.4 L -348.1 168.4"/>
<path d="M -348.1 168.4 A 35 35 0 0 0 -343.2 98.6"/>
<path d="M -343.2 98.6 A 35 35 0 0 0 -348.1 168.4"/>
<path d="M -348.1 168.4 A 12 12 0 0 1 -337 179.2"/>
<path d="M -337 179.2 L -329.1 253.7"/>
<path d="M -329.1 253.7 A 12 12 0 0 0 -323.9 262.4"/>
<path d="M -323.9 262.4 L -220.3 332.3"/>
<path d="M -220.3 332.3 A 20 20 0 0 1 -242.6 365.5"/>
<path d="M -242.6 365.5 L -284.1 337.5"/>
<path d="M -284.1 337.5 A 24 24 0 0 0 -314.2 374.7"/>
<path d="M -314.2 374.7 L -260.2 426.8"/>
<path d="M -260.2 426.8 A 12 12 0 0 0 -246.3 428.8"/>
<path d="M -246.3 428.8 L -158 381.8"/>
<path d="M -133.8 337.8 L -195.3 259"/>
<path d="M -195.3 259 A 12 12 0 0 1 -197.9 251.6"/>
<path d="M -197.9 251.6 L -197.9 151.6"/>
<path d="M -197.9 151.6 A 12 12 0 0 0 -219.7 144.7"/>
<path d="M -219.7 144.7 L -262.7 206.2"/>
<path d="M -278.1 206.2 L -278.1 106.2"/>
<path d="M -278.1 106.2 A 12 12 0 0 1 -267.8 94.3"/>
<path d="M -267.8 94.3 L -218.3 87.3"/>
</g>
<rect x="-366.9" y="-3.2" width="87" height="35" fill="#fff" stroke="#000" stroke-width="4"/>
<rect x="-163.8" y="337.8" width="94.3" height="44" fill="#fff" stroke="#000" stroke-width="4"/>
<rect x="-316.8" y="206.2" width="77.4" height="44" fill="#fff" stroke="#000" stroke-width="4"/>
<path class="nordpfeil" d="M 68.9 -16.1 L 68.9 -26.1 M 68.9 -32.1 L 72.4 -26.1 L 65.4 -26.1 Z" fill="#000" stroke="#000" stroke-width="3" stroke-linejoin="round"/>
</svg>
