<svg xmlns="http://www.w3.org/2000/svg" viewBox="-96.6 -60.9 634.7 665.4" preserveAspectRatio="xMidYMid meet">
<g fill="none" stroke="#000" stroke-width="11" stroke-linecap="round">
<path d="M 0 0 L -54.9 51.1"/>
<path d="M -54.9 51.1 A 20 20 0 0 0 -27.6 80.4"/>
<path d="M -27.6 80.4 L 27.3 29.3"/>
<path d="M 27.3 29.3 A 24 24 0 0 1 63.1 60.9"/>
<path d="M 63.1 60.9 L 4.3 141.8"/>
<path d="M 4.3 141.8 A 12 12 0 0 0 14 160.9"/>
<path d="M 14 160.9 L 114 160.9"/>
<path d="M 114 160.9 A 12 12 0 0 1 118.6 184"/>
<path d="M 118.6 184 L 26.2 222.2"/>
<path d="M 26.2 222.2 A 20 20 0 0 0 41.5 259.2"/>
<path d="M 41.5 259.2 L 157 211.3"/>
<path d="M 234.4 179.3 L 326.8 141"/>
<path d="M 326.8 141 A 12 12 0 0 1 341.3 145.4"/>
<path d="M 341.3 145.4 L 369.3 186.8"/>
<path d="M 406.1 230.8 L 476.8 301.6"/>
<path d="M 476.8 301.6 A 12 12 0 0 1 479.4 314.6"/>
<path d="M 479.4 314.6 L 450.7 383.9"/>
<path d="M 450.7 383.9 A 35 35 0 0 0 515.4 410.7"/>
<path d="M 515.4 410.7 A 35 35 0 0 0 450.7 383.9"/>
<path d="M 450.7 383.9 A 12 12 0 0 1 447.8 388.1"/>
<path d="M 447.8 388.1 L 374.7 456.3"/>
<path d="M 374.7 456.3 A 24 24 0 0 1 337.1 427.5"/>
<path d="M 337.1 427.5 L 360.6 383.3"/>
<path d="M 360.6 383.3 A 12 12 0 0 0 358.5 369.2"/>
<path d="M 358.5 369.2 L 305.4 316.2"/>
<path d="M 281.9 316.2 L 274.9 415.9"/>
<path d="M 274.9 415.9 A 12 12 0 0 1 266.5 426.6"/>
<path d="M 266.5 426.6 L 194.8 448.5"/>
<path d="M 194.8 448.5 A 12 12 0 0 0 187.4 454.9"/>
<path d="M 187.4 454.9 L 145.1 545.5"/>
<path d="M 145.1 545.5 A 12 12 0 0 0 164.5 559.1"/>
<path d="M 164.5 559.1 L 235.2 488.4"/>
<path d="M 235.2 488.4 A 12 12 0 0 1 241.6 485.1"/>
<path d="M 241.6 485.1 L 290.8 476.4"/>
<path d="M 290.8 476.4 A 12 12 0 0 1 303.2 482"/>
<path d="M 303.2 482 L 329 524.9"/>
<path d="M 329 524.9 A 12 12 0 0 1 323.3 542.1"/>
<path d="M 323.3 542.1 L 254 570.8"/>
</g>
<rect x="157" y="173.3" width="77.4" height="44" fill="#fff" stroke="#000" stroke-width="4"/>
<rect x="344" y="186.8" width="80.3" height="44" fill="#fff" stroke="#000" stroke-width="4"/>
<rect x="243.4" y="272.2" width="80.2" height="44" fill="#fff" stroke="#000" stroke-width="4"/>
<path class="nordpfeil" d="M 528 -22.9 L 528 -32.9 M 528 -38.9 L 531.5 -32.9 L 524.5 -32.9 Z" fill="#000" stroke="#000" stroke-width="3" stroke-linejoin="round"/>
</svg>
