<svg xmlns="http://www.w3.org/2000/svg" viewBox="-82 -107.5 653.1 591.6" preserveAspectRatio="xMidYMid meet">
<g fill="none" stroke="#000" stroke-width="11" stroke-linecap="round">
<path d="M 0 0 L -19.4 -72.4"/>
<path d="M -19.4 -72.4 A 12 12 0 0 1 -3.2 -86.6"/>
<path d="M -3.2 -86.6 L 89.2 -48.4"/>
<path d="M 89.2 -48.4 A 20 20 0 0 1 73.8 -11.4"/>
<path d="M 73.8 -11.4 L 27.7 -30.6"/>
<path d="M 27.7 -30.6 A 12 12 0 0 0 14.6 -11"/>
<path d="M 14.6 -11 L 85.3 59.7"/>
<path d="M 95.1 103.7 L 34.5 213.1"/>
<path d="M 34.5 213.1 A 35 35 0 1 1 24.5 167.8"/>
<path d="M 24.5 167.8 L 125.6 241.3"/>
<path d="M 125.6 241.3 A 35 35 0 0 0 166.7 184.6"/>
<path d="M 166.7 184.6 A 35 35 0 0 0 125.6 241.3"/>
<path d="M 125.6 241.3 A 12 12 0 0 1 127 242.5"/>
<path d="M 127 242.5 L 180.1 295.5"/>
<path d="M 180.1 295.5 A 12 12 0 0 1 174.9 315.5"/>
<path d="M 174.9 315.5 L 126.8 329.3"/>
<path d="M 126.8 329.3 A 12 12 0 0 0 119.2 336"/>
<path d="M 119.2 336 L 98.8 381.6"/>
<path d="M 98.8 381.6 A 12 12 0 0 0 101.9 395.6"/>
<path d="M 101.9 395.6 L 177.4 461.2"/>
<path d="M 177.4 461.2 A 12 12 0 0 0 197.1 454"/>
<path d="M 197.1 454 L 208.8 379.9"/>
<path d="M 208.8 379.9 A 12 12 0 0 1 211.6 373.9"/>
<path d="M 211.6 373.9 L 260.8 317.3"/>
<path d="M 276.1 282.3 L 276.1 157.3"/>
<path d="M 276.1 157.3 A 12 12 0 0 1 279.6 148.8"/>
<path d="M 279.6 148.8 L 314.9 113.5"/>
<path d="M 314.9 113.5 A 35 35 0 0 0 265.4 64"/>
<path d="M 265.4 64 A 35 35 0 0 0 314.9 113.5"/>
<path d="M 314.9 113.5 A 12 12 0 0 1 329.8 111.8"/>
<path d="M 329.8 111.8 L 372.2 138.3"/>
<path d="M 372.2 138.3 A 24 24 0 0 0 406.3 128.8"/>
<path d="M 406.3 128.8 L 463 17.5"/>
<path d="M 483.3 17.5 L 512 86.8"/>
<path d="M 512 86.8 A 12 12 0 0 1 513 91.3"/>
<path d="M 513 91.3 L 513 216.3"/>
<path d="M 513 216.3 A 12 12 0 0 1 510.1 224.1"/>
<path d="M 510.1 224.1 L 461.9 281.5"/>
</g>
<rect x="68.6" y="59.7" width="77.4" height="44" fill="#fff" stroke="#000" stroke-width="4"/>
<rect x="235.4" y="282.3" width="81.3" height="35" fill="#fff" stroke="#000" stroke-width="4"/>
<rect x="439.7" y="-26.5" width="69" height="44" fill="#fff" stroke="#000" stroke-width="4"/>
<path class="nordpfeil" d="M 561.2 -69.5 L 561.2 -79.5 M 561.2 -85.5 L 564.7 -79.5 L 557.7 -79.5 Z" fill="#000" stroke="#000" stroke-width="3" stroke-linejoin="round"/>
</svg>
