<svg xmlns="http://www.w3.org/2000/svg" viewBox="-263.1 -132.1 554.9 503.8" preserveAspectRatio="xMidYMid meet">
<g fill="none" stroke="#000" stroke-width="11" stroke-linecap="round">
<path d="M 0 0 L -28.7 69.3"/>
<path d="M -28.7 69.3 A 12 12 0 0 1 -48.3 73.2"/>
<path d="M -48.3 73.2 L -101.3 20.1"/>
<path d="M -101.3 20.1 A 12 12 0 0 0 -121.8 28.9"/>
<path d="M -121.8 28.9 L -120 128.8"/>
<path d="M -120 128.8 A 12 12 0 0 0 -104.1 140"/>
<path d="M -104.1 140 L -33.2 115.5"/>
<path d="M -33.2 115.5 A 24 24 0 0 1 -1.5 140.8"/>
<path d="M -1.5 140.8 L -9.4 215.3"/>
<path d="M -9.4 215.3 A 35 35 0 1 0 -7 205.9"/>
<path d="M -7 205.9 L -25.8 252.3"/>
<path d="M -25.8 252.3 A 24 24 0 0 0 -2.7 285.2"/>
<path d="M -2.7 285.2 L 97.3 281.7"/>
<path d="M 97.3 281.7 A 35 35 0 0 1 99.7 351.7"/>
<path d="M 99.7 351.7 A 35 35 0 0 1 97.3 281.7"/>
<path d="M 97.3 281.7 A 12 12 0 0 0 103.9 279.4"/>
<path d="M 103.9 279.4 L 164.6 235.4"/>
<path d="M 164.6 235.4 A 28 28 0 1 1 153.1 257"/>
<path d="M 153.1 257 L 156.6 157.1"/>
<path d="M 156.6 157.1 A 35 35 0 1 1 206.3 190"/>
<path d="M 206.3 190 L 115.7 232.3"/>
<path d="M 115.7 232.3 A 12 12 0 0 1 99.7 216.4"/>
<path d="M 99.7 216.4 L 131.4 148.4"/>
<path d="M 131.4 148.4 A 12 12 0 0 0 125.2 132.2"/>
<path d="M 125.2 132.2 L 32.8 94"/>
<path d="M 32.8 94 A 12 12 0 0 1 31.4 72.5"/>
<path d="M 31.4 72.5 L 161.3 -2.5"/>
<path d="M 161.3 -2.5 A 12 12 0 0 0 166.8 -9.6"/>
<path d="M 166.8 -9.6 L 180.6 -57.7"/>
<path d="M 180.6 -57.7 A 35 35 0 1 1 208.8 -13.4"/>
<path d="M 208.8 -13.4 L 60.6 -36.9"/>
<path d="M 60.6 -36.9 A 12 12 0 0 1 52 -43"/>
<path d="M 52 -43 L 27.7 -86.7"/>
<path d="M 27.7 -86.7 A 12 12 0 0 0 14.3 -92.5"/>
<path d="M 14.3 -92.5 L -82.7 -68.3"/>
<path d="M -82.7 -68.3 A 35 35 0 0 0 -65.8 -0.4"/>
<path d="M -65.8 -0.4 A 35 35 0 0 0 -82.7 -68.3"/>
<path d="M -82.7 -68.3 A 12 12 0 0 1 -91.4 -69.5"/>
<path d="M -91.4 -69.5 L -157 -105.8"/>
<path d="M -157 -105.8 A 12 12 0 0 0 -173.5 -89.9"/>
<path d="M -173.5 -89.9 L -128.1 -0.8"/>
<path d="M -128.1 -0.8 A 12 12 0 0 1 -133.2 15.3"/>
<path d="M -133.2 15.3 L -177.3 38.7"/>
<path d="M -177.3 38.7 A 24 24 0 0 0 -189.6 64.5"/>
<path d="M -189.6 64.5 L -180.1 113.6"/>
<path d="M -180.1 113.6 A 12 12 0 0 1 -193.7 127.7"/>
<path d="M -193.7 127.7 L -243.1 119.9"/>
</g>
<path class="nordpfeil" d="M 281.8 -94.1 L 281.8 -104.1 M 281.8 -110.1 L 285.3 -104.1 L 278.3 -104.1 Z" fill="#000" stroke="#000" stroke-width="3" stroke-linejoin="round"/>
</svg>
